<svg width="4" height="6" viewBox="0 0 4 6" fill="none" xmlns="http://www.w3.org/2000/svg">
<path d="M3.48791 2.52695C3.66761 2.69295 3.75746 2.77595 3.78998 2.87351C3.81735 2.95562 3.81735 3.04438 3.78998 3.12649C3.75746 3.22405 3.66761 3.30705 3.48791 3.47305L1.33099 5.46553C0.985712 5.78448 0.813074 5.94396 0.665688 5.94974C0.543229 5.95455 0.425324 5.90295 0.34576 5.80974C0.25 5.69755 0.25 5.46252 0.25 4.99248L0.25 1.00752C0.25 0.537475 0.25 0.302452 0.34576 0.190263C0.425324 0.097049 0.543229 0.0454526 0.665688 0.0502591C0.813074 0.0560441 0.985712 0.21552 1.33099 0.534471L3.48791 2.52695Z" fill="#F15D22"/>
</svg>
