<svg width="28" height="25" viewBox="0 0 28 25" fill="none" xmlns="http://www.w3.org/2000/svg">
<path d="M25.4445 12.5C25.4445 19.4036 19.7859 25 12.8056 25C5.82537 25 0.166748 19.4036 0.166748 12.5C0.166748 5.59644 5.82537 0 12.8056 0C19.7859 0 25.4445 5.59644 25.4445 12.5ZM2.79743 12.5C2.79743 17.9666 7.27826 22.3982 12.8056 22.3982C18.333 22.3982 22.8138 17.9666 22.8138 12.5C22.8138 7.03336 18.333 2.60178 12.8056 2.60178C7.27826 2.60178 2.79743 7.03336 2.79743 12.5Z" fill="#D6D6D6"/>
<path d="M22.4049 2.45688L23.1322 3.14322L22.4049 2.45688L12.9441 12.4821L9.16474 8.74424C8.18283 7.77312 6.59538 7.77312 5.61347 8.74424C4.62543 9.72142 4.62543 11.3104 5.61347 12.2876L11.2308 17.8431C11.7142 18.3212 12.3708 18.5827 13.0496 18.5711C13.7283 18.5595 14.3757 18.2758 14.8424 17.7813L26.077 5.87651C27.031 4.86555 26.9749 3.27759 25.9541 2.33531C24.9396 1.39885 23.353 1.4522 22.4049 2.45688Z" fill="#002856" stroke="white" stroke-width="2" stroke-linecap="round" stroke-linejoin="round"/>
</svg>
