<svg width="24" height="24" viewBox="0 0 24 24" fill="none" xmlns="http://www.w3.org/2000/svg">
<g id="fluent:caret-right-16-filled">
<path id="Vector" d="M6.33546 7.33546C6.55032 7.12066 6.84169 7 7.1455 7C7.44932 7 7.74069 7.12066 7.95555 7.33546L12.0069 11.3868L16.0583 7.33546C16.2744 7.12675 16.5638 7.01127 16.8642 7.01388C17.1646 7.01649 17.452 7.13699 17.6644 7.34942C17.8768 7.56185 17.9973 7.84922 18 8.14963C18.0026 8.45004 17.8871 8.73946 17.6784 8.95555L13.627 13.0069L17.6784 17.0583C17.8871 17.2744 18.0026 17.5638 18 17.8642C17.9973 18.1646 17.8768 18.452 17.6644 18.6644C17.452 18.8768 17.1646 18.9973 16.8642 19C16.5638 19.0026 16.2744 18.8871 16.0583 18.6784L12.0069 14.627L7.95555 18.6784C7.73946 18.8871 7.45004 19.0026 7.14963 19C6.84922 18.9973 6.56185 18.8768 6.34942 18.6644C6.13699 18.452 6.01649 18.1646 6.01388 17.8642C6.01127 17.5638 6.12675 17.2744 6.33546 17.0583L10.3868 13.0069L6.33546 8.95555C6.12066 8.74069 6 8.44932 6 8.1455C6 7.84169 6.12066 7.55032 6.33546 7.33546Z" fill="#002856"/>
</g>
</svg>
