<svg width="24" height="24" viewBox="0 0 24 24" fill="none" xmlns="http://www.w3.org/2000/svg">
<g id="mingcute:question-fill">
<path id="Vector" d="M2 12C2 9.34784 3.05357 6.8043 4.92893 4.92893C6.8043 3.05357 9.34784 2 12 2C14.6522 2 17.1957 3.05357 19.0711 4.92893C20.9464 6.8043 22 9.34784 22 12C22 14.6522 20.9464 17.1957 19.0711 19.0711C17.1957 20.9464 14.6522 22 12 22C9.34784 22 6.8043 20.9464 4.92893 19.0711C3.05357 17.1957 2 14.6522 2 12ZM12 3.875C9.84512 3.875 7.77849 4.73102 6.25476 6.25476C4.73102 7.77849 3.875 9.84512 3.875 12C3.875 14.1549 4.73102 16.2215 6.25476 17.7452C7.77849 19.269 9.84512 20.125 12 20.125C14.1549 20.125 16.2215 19.269 17.7452 17.7452C19.269 16.2215 20.125 14.1549 20.125 12C20.125 9.84512 19.269 7.77849 17.7452 6.25476C16.2215 4.73102 14.1549 3.875 12 3.875ZM10.65 9.60625C10.5389 9.8287 10.3453 9.99792 10.1095 10.0767C9.87366 10.1555 9.6162 10.1373 9.39375 10.0262C9.1713 9.91519 9.00208 9.72031 8.92331 9.48448C8.84455 9.24866 8.86269 8.9912 8.97375 8.76875C9.185 8.345 9.51875 7.8925 10.035 7.5475C10.5562 7.2 11.2113 7 12 7C12.7346 6.99498 13.4516 7.22492 14.0463 7.65625C14.675 8.1275 15.125 8.8625 15.125 9.8125C15.125 10.3725 14.9812 10.85 14.7137 11.25C14.4575 11.6337 14.1263 11.8913 13.8488 12.0775C13.7125 12.1675 13.5738 12.25 13.4575 12.3212L13.45 12.3263C13.3401 12.3903 13.2317 12.4569 13.125 12.5262C12.9911 12.6049 12.8739 12.7089 12.78 12.8325C12.6408 13.0364 12.4268 13.1771 12.1845 13.2242C11.9422 13.2713 11.6911 13.2209 11.4857 13.084C11.2803 12.947 11.1372 12.7346 11.0874 12.4928C11.0377 12.251 11.0853 11.9994 11.22 11.7925C11.45 11.4625 11.745 11.1812 12.085 10.9662C12.2137 10.8825 12.3437 10.8013 12.4762 10.7225L12.485 10.7175C12.61 10.6412 12.7125 10.58 12.8075 10.5163C12.9415 10.4373 13.0591 10.3334 13.1538 10.21C13.2 10.1425 13.25 10.0337 13.25 9.8125C13.2547 9.68444 13.2272 9.55723 13.17 9.44257C13.1128 9.3279 13.0277 9.22945 12.9225 9.15625C12.6516 8.9691 12.3292 8.87082 12 8.875C11.5387 8.875 11.2563 8.9875 11.075 9.10875C10.8921 9.23435 10.7455 9.40595 10.65 9.60625ZM13.25 15.75C13.25 16.0815 13.1183 16.3995 12.8839 16.6339C12.6495 16.8683 12.3315 17 12 17C11.6685 17 11.3505 16.8683 11.1161 16.6339C10.8817 16.3995 10.75 16.0815 10.75 15.75C10.75 15.4185 10.8817 15.1005 11.1161 14.8661C11.3505 14.6317 11.6685 14.5 12 14.5C12.3315 14.5 12.6495 14.6317 12.8839 14.8661C13.1183 15.1005 13.25 15.4185 13.25 15.75Z" fill="#454545"/>
</g>
</svg>
