<svg width="32" height="32" viewBox="0 0 32 32" fill="none" xmlns="http://www.w3.org/2000/svg">
<g id="carbon:ibm-cloud-pak-security">
<path id="Vector" d="M16 23.729C14.4093 23.7271 12.8842 23.0944 11.7594 21.9696C10.6346 20.8448 10.0019 19.3197 10 17.729V11.272L16 8.27197L22 11.272V17.728C21.9981 19.3187 21.3654 20.8437 20.2406 21.9686C19.1158 23.0934 17.5907 23.7271 16 23.729ZM12 12.507V17.729C12 18.7898 12.4214 19.8073 13.1716 20.5574C13.9217 21.3075 14.9391 21.729 16 21.729C17.0609 21.729 18.0783 21.3075 18.8284 20.5574C19.5786 19.8073 20 18.7898 20 17.729V12.507L16 10.507L12 12.507Z" fill="#454545"/>
<path id="Vector_2" d="M16 31.0001C15.8229 31.0002 15.649 30.9533 15.496 30.8641L3.496 23.8641C3.34502 23.776 3.21978 23.6498 3.13275 23.4982C3.04572 23.3466 2.99995 23.1749 3 23.0001V9.00005C2.99995 8.82525 3.04572 8.65349 3.13275 8.50189C3.21978 8.35029 3.34502 8.22415 3.496 8.13605L15.496 1.13605C15.649 1.04679 15.8229 0.999756 16 0.999756C16.1771 0.999756 16.351 1.04679 16.504 1.13605L28.504 8.13605L27.496 9.86405L16 3.15805L5 9.57405V22.4261L16 28.8431L27 22.4261V15.0001H29V23.0001C29.0001 23.1749 28.9543 23.3466 28.8673 23.4982C28.7802 23.6498 28.655 23.776 28.504 23.8641L16.504 30.8641C16.351 30.9533 16.1771 31.0002 16 31.0001Z" fill="#454545"/>
</g>
</svg>
