<svg width="32" height="32" viewBox="0 0 32 32" fill="none" xmlns="http://www.w3.org/2000/svg">
<g id="carbon:inventory-management" clip-path="url(#clip0_16_1817)">
<path id="Vector" d="M27.9988 3.99956C27.9989 4.63566 27.8472 5.26262 27.5562 5.82835C27.2652 6.39407 26.8433 6.88223 26.3256 7.25225C25.8079 7.62227 25.2092 7.86348 24.5795 7.95583C23.9497 8.04818 23.307 7.98901 22.7048 7.78323L20.1368 11.6668C21.2788 12.7542 21.9928 14.2872 21.9988 15.9882L24.3388 16.3919C24.7317 15.5017 25.4359 14.7853 26.3196 14.3769C27.2032 13.9685 28.2056 13.8962 29.1387 14.1735C30.0719 14.4509 30.8718 15.0588 31.3886 15.8834C31.9053 16.708 32.1034 17.6926 31.9457 18.6527C31.7881 19.6128 31.2854 20.4825 30.532 21.0987C29.7786 21.715 28.8262 22.0354 27.8533 22.0001C26.8804 21.9648 25.9538 21.5761 25.2471 20.9068C24.5405 20.2376 24.1023 19.3337 24.0148 18.3647L21.6748 17.959C21.1799 19.3931 20.1613 20.5875 18.8228 21.3029L19.7108 24.0152C20.6818 23.9454 21.645 24.2319 22.4198 24.8209C23.1946 25.41 23.7279 26.2613 23.9196 27.2152C24.1113 28.1691 23.9484 29.1602 23.4613 30.0026C22.9742 30.845 22.1964 31.4809 21.2736 31.7912C20.3509 32.1015 19.3467 32.0649 18.4491 31.6881C17.5514 31.3114 16.8221 30.6204 16.3978 29.7447C15.9735 28.869 15.8833 27.8688 16.1442 26.9314C16.405 25.994 16.999 25.1839 17.8148 24.6528L16.9248 21.9345C15.8425 22.1043 14.7343 21.9742 13.7208 21.5583C12.7074 21.1425 11.8274 20.4568 11.1768 19.576L7.90676 21.151C8.11575 22.1013 7.97076 23.0951 7.49898 23.9462C7.02719 24.7973 6.26101 25.4473 5.34404 25.7742C4.42707 26.1011 3.42227 26.0826 2.51798 25.7221C1.6137 25.3616 0.872011 24.6839 0.431948 23.816C-0.00811502 22.9481 -0.116341 21.9496 0.127557 21.0076C0.371455 20.0657 0.950731 19.245 1.7568 18.6993C2.56288 18.1537 3.5404 17.9206 4.50615 18.0437C5.4719 18.1668 6.35957 18.6377 7.00276 19.3681L10.2688 17.7951C9.9587 16.8009 9.91312 15.7432 10.1365 14.7261C10.3599 13.709 10.8446 12.7676 11.5428 11.9946L9.67276 9.64808C8.7884 10.0549 7.78592 10.1255 6.85322 9.84653C5.92053 9.56756 5.12165 8.95821 4.60635 8.13271C4.09104 7.3072 3.89468 6.32221 4.05408 5.36236C4.21347 4.40252 4.71767 3.53372 5.47217 2.91882C6.22666 2.30391 7.17966 1.98512 8.15253 2.0222C9.12539 2.05927 10.0513 2.44967 10.7568 3.12021C11.4622 3.79076 11.8988 4.69541 11.9845 5.66459C12.0703 6.63378 11.7995 7.60097 11.2228 8.38486L13.1108 10.7534C13.9668 10.2817 14.9508 10.0119 15.9988 10.0119C16.8828 10.0119 17.7228 10.2017 18.4788 10.5455L21.0348 6.68191C20.5986 6.20087 20.2862 5.6209 20.1246 4.99215C19.9629 4.36339 19.957 3.70475 20.1072 3.07317C20.2574 2.44159 20.5592 1.85607 20.9866 1.36722C21.414 0.878376 21.9542 0.500908 22.5603 0.267449C23.1664 0.0339898 23.8203 -0.0484359 24.4654 0.0272961C25.1105 0.103028 25.7275 0.334639 26.263 0.70211C26.7985 1.06958 27.2364 1.56185 27.5388 2.13638C27.8412 2.7109 27.9991 3.35038 27.9988 3.99956ZM25.9988 3.99956C25.9988 3.46945 25.7881 2.96106 25.413 2.58621C25.0379 2.21137 24.5292 2.00079 23.9988 2.00079C23.4683 2.00079 22.9596 2.21137 22.5846 2.58621C22.2095 2.96106 21.9988 3.46945 21.9988 3.99956C21.9988 4.52966 22.2095 5.03806 22.5846 5.4129C22.9596 5.78774 23.4683 5.99833 23.9988 5.99833C24.5292 5.99833 25.0379 5.78774 25.413 5.4129C25.7881 5.03806 25.9988 4.52966 25.9988 3.99956ZM7.99876 8.01509C8.5292 8.01509 9.03791 7.8045 9.41298 7.42966C9.78805 7.05482 9.99876 6.54642 9.99876 6.01632C9.99876 5.48621 9.78805 4.97782 9.41298 4.60297C9.03791 4.22813 8.5292 4.01755 7.99876 4.01755C7.46833 4.01755 6.95962 4.22813 6.58455 4.60297C6.20948 4.97782 5.99876 5.48621 5.99876 6.01632C5.99876 6.54642 6.20948 7.05482 6.58455 7.42966C6.95962 7.8045 7.46833 8.01509 7.99876 8.01509ZM15.9988 20.0077C17.0596 20.0077 18.077 19.5865 18.8272 18.8369C19.5773 18.0872 19.9988 17.0704 19.9988 16.0102C19.9988 14.95 19.5773 13.9332 18.8272 13.1835C18.077 12.4338 17.0596 12.0126 15.9988 12.0126C14.9379 12.0126 13.9205 12.4338 13.1703 13.1835C12.4202 13.9332 11.9988 14.95 11.9988 16.0102C11.9988 17.0704 12.4202 18.0872 13.1703 18.8369C13.9205 19.5865 14.9379 20.0077 15.9988 20.0077ZM5.99876 22.0065C5.99876 21.4764 5.78805 20.968 5.41298 20.5931C5.03791 20.2183 4.5292 20.0077 3.99877 20.0077C3.46833 20.0077 2.95962 20.2183 2.58455 20.5931C2.20948 20.968 1.99877 21.4764 1.99877 22.0065C1.99877 22.5366 2.20948 23.045 2.58455 23.4198C2.95962 23.7947 3.46833 24.0052 3.99877 24.0052C4.5292 24.0052 5.03791 23.7947 5.41298 23.4198C5.78805 23.045 5.99876 22.5366 5.99876 22.0065ZM21.9988 28.0028C21.9988 27.4727 21.7881 26.9643 21.413 26.5894C21.0379 26.2146 20.5292 26.004 19.9988 26.004C19.4683 26.004 18.9596 26.2146 18.5846 26.5894C18.2095 26.9643 17.9988 27.4727 17.9988 28.0028C17.9988 28.5329 18.2095 29.0413 18.5846 29.4161C18.9596 29.791 19.4683 30.0016 19.9988 30.0016C20.5292 30.0016 21.0379 29.791 21.413 29.4161C21.7881 29.0413 21.9988 28.5329 21.9988 28.0028ZM27.9988 20.0077C28.5292 20.0077 29.0379 19.7971 29.413 19.4223C29.7881 19.0474 29.9988 18.539 29.9988 18.0089C29.9988 17.4788 29.7881 16.9704 29.413 16.5956C29.0379 16.2207 28.5292 16.0102 27.9988 16.0102C27.4683 16.0102 26.9596 16.2207 26.5846 16.5956C26.2095 16.9704 25.9988 17.4788 25.9988 18.0089C25.9988 18.539 26.2095 19.0474 26.5846 19.4223C26.9596 19.7971 27.4683 20.0077 27.9988 20.0077Z" fill="#fff"/>
</g>
<defs>
<clipPath id="clip0_16_1817">
<rect width="32" height="32" fill="white"/>
</clipPath>
</defs>
</svg>
