<svg width="32" height="32" viewBox="0 0 32 32" fill="none" xmlns="http://www.w3.org/2000/svg">
<g id="ic:outline-view-in-ar">
<path id="Vector" d="M23.9258 9.99657L23.9269 9.99721C24.7055 10.4367 25.184 11.2662 25.184 12.1733V19.8266C25.184 20.7336 24.7055 21.5631 23.9269 22.0026L23.9258 22.0033L17.2591 25.8433L17.2587 25.8435C16.8683 26.0702 16.441 26.1833 16.0007 26.1833C15.5603 26.1833 15.133 26.0702 14.7426 25.8435L14.7422 25.8433L8.07552 22.0033L8.07439 22.0026C7.29581 21.5631 6.81732 20.7336 6.81732 19.8266V12.1733C6.81732 11.2667 7.29557 10.4362 8.07579 9.98308C8.07585 9.98304 8.07591 9.98301 8.07597 9.98297L14.742 6.15668L14.7426 6.1563C15.133 5.92965 15.5603 5.81659 16.0007 5.81659C16.441 5.81659 16.8683 5.92965 17.2587 6.1563L17.2591 6.15657L23.9258 9.99657ZM14.5925 23.0233L14.8173 23.1525V22.8933V16.7599V16.6737L14.7428 16.6303L9.40948 13.5236L9.18398 13.3923V13.6533V19.8266V19.9134L9.25921 19.9566L14.5925 23.0233ZM15.9251 14.5828L16.0007 14.6269L16.0762 14.5828L21.3562 11.5028L21.5798 11.3724L21.3555 11.2433L16.0755 8.20326L16.0007 8.16017L15.9258 8.20326L10.6458 11.2433L10.4215 11.3724L10.6451 11.5028L15.9251 14.5828ZM22.7421 19.9566L22.8173 19.9134V19.8266V13.6533V13.3923L22.5918 13.5236L17.2585 16.6303L17.184 16.6737V16.7599V22.8933V23.1525L17.4088 23.0233L22.7421 19.9566ZM5.33398 3.84992C4.51781 3.84992 3.85065 4.51708 3.85065 5.33325V7.84992H1.48398V5.33325C1.48398 3.20276 3.20349 1.48325 5.33398 1.48325H7.85065V3.84992H5.33398ZM1.48398 24.1499H3.85065V26.6666C3.85065 27.4828 4.51781 28.1499 5.33398 28.1499H7.85065V30.5166H5.33398C3.20349 30.5166 1.48398 28.7971 1.48398 26.6666V24.1499ZM24.1507 3.84992V1.48325H26.6673C28.7978 1.48325 30.5173 3.20276 30.5173 5.33325V7.84992H28.1507V5.33325C28.1507 4.51708 27.4835 3.84992 26.6673 3.84992H24.1507ZM26.6673 28.1499C27.4835 28.1499 28.1507 27.4828 28.1507 26.6666V24.1499H30.5173V26.6666C30.5173 28.7971 28.7978 30.5166 26.6673 30.5166H24.1507V28.1499H26.6673Z" fill="#454545" stroke="#F2F2F2" stroke-width="0.3"/>
</g>
</svg>
