<svg width="24" height="26" viewBox="0 0 24 26" fill="none" xmlns="http://www.w3.org/2000/svg">
<path d="M11.2012 0.332966C11.4214 0.118468 11.7056 0 12 0C12.2944 0 12.5786 0.118468 12.7988 0.332966L23.6256 10.8921C23.8519 11.128 23.9858 11.4512 23.9989 11.7934C24.0121 12.1356 23.9035 12.47 23.6961 12.726C23.4888 12.9819 23.1988 13.1395 22.8875 13.1652C22.5763 13.191 22.268 13.083 22.028 12.864L21.6238 12.472V22.4372C21.6238 23.1374 21.3703 23.8088 20.9191 24.3039C20.4679 24.7989 19.8559 25.077 19.2179 25.077H4.78215C4.14405 25.077 3.53209 24.7989 3.08089 24.3039C2.62968 23.8088 2.3762 23.1374 2.3762 22.4372V12.472L1.972 12.864C1.73196 13.083 1.42374 13.191 1.11247 13.1652C0.801201 13.1395 0.511247 12.9819 0.303861 12.726C0.0964762 12.47 -0.012099 12.1356 0.00107239 11.7934C0.0142438 11.4512 0.14813 11.128 0.374448 10.8921L11.2012 0.332966ZM4.78215 10.1226V22.4372H8.39107V15.8378C8.39107 15.4877 8.51782 15.152 8.74342 14.9045C8.96902 14.6569 9.275 14.5179 9.59405 14.5179H14.406C14.725 14.5179 15.031 14.6569 15.2566 14.9045C15.4822 15.152 15.6089 15.4877 15.6089 15.8378V22.4372H19.2179V10.1239L12 3.08495L4.78215 10.1226ZM13.203 22.4372V17.1577H10.797V22.4372H13.203Z" fill="#002856"/>
</svg>
