<svg width="32" height="32" viewBox="0 0 32 32" fill="none" xmlns="http://www.w3.org/2000/svg">
<g id="carbon:iot-connect">
<path id="Vector" d="M30 19H26V15H24V24H8V8H17V6H13V2H11V6H8C7.46973 6.00053 6.96133 6.21141 6.58637 6.58637C6.21141 6.96133 6.00053 7.46973 6 8V11H2V13H6V19H2V21H6V24C6.00053 24.5303 6.21141 25.0387 6.58637 25.4136C6.96133 25.7886 7.46973 25.9995 8 26H11V30H13V26H19V30H21V26H24C24.5302 25.9992 25.0384 25.7882 25.4133 25.4133C25.7882 25.0384 25.9992 24.5302 26 24V21H30V19Z" fill="#454545"/>
<path id="Vector_2" d="M26 2C24.9395 2.00106 23.9227 2.42283 23.1727 3.17274C22.4228 3.92266 22.0011 4.93946 22 6C22.0037 6.71209 22.1996 7.40997 22.567 8.02L19.586 11H11V21H21V12.414L23.98 9.434C24.5901 9.80106 25.288 9.9966 26 10C27.0609 10 28.0783 9.57857 28.8284 8.82843C29.5786 8.07828 30 7.06087 30 6C30 4.93913 29.5786 3.92172 28.8284 3.17157C28.0783 2.42143 27.0609 2 26 2ZM19 19H13V13H19V19ZM26 8C25.6044 8 25.2178 7.8827 24.8889 7.66294C24.56 7.44318 24.3036 7.13082 24.1522 6.76537C24.0009 6.39991 23.9613 5.99778 24.0384 5.60982C24.1156 5.22186 24.3061 4.86549 24.5858 4.58579C24.8655 4.30608 25.2219 4.1156 25.6098 4.03843C25.9978 3.96126 26.3999 4.00087 26.7654 4.15224C27.1308 4.30362 27.4432 4.55996 27.6629 4.88886C27.8827 5.21776 28 5.60444 28 6C27.9995 6.53027 27.7886 7.03867 27.4136 7.41363C27.0387 7.78859 26.5303 7.99947 26 8Z" fill="#454545"/>
</g>
</svg>
