<svg width="33" height="32" viewBox="0 0 33 32" fill="none" xmlns="http://www.w3.org/2000/svg">
<g id="clarity:license-line" clip-path="url(#clip0_16_1778)">
<path id="Vector" d="M28.944 5.33325H4.05512C3.58363 5.33325 3.13144 5.52055 2.79804 5.85395C2.46464 6.18735 2.27734 6.63953 2.27734 7.11103V24.8888C2.27734 25.3603 2.46464 25.8125 2.79804 26.1459C3.13144 26.4793 3.58363 26.6666 4.05512 26.6666H17.3885L17.8951 26.0444L18.7218 25.031L18.6418 24.8888H4.05512V7.11103H28.944V14.7199C29.6193 15.1571 30.2196 15.7004 30.7218 16.3288V7.11103C30.7218 6.63953 30.5345 6.18735 30.2011 5.85395C29.8677 5.52055 29.4155 5.33325 28.944 5.33325Z" fill="#454545"/>
<path id="Vector_2" d="M6.72266 10.6667H21.8338V12.089H6.72266V10.6667Z" fill="#454545"/>
<path id="Vector_3" d="M6.72266 14.2222H16.5004V15.6444H6.72266V14.2222Z" fill="#454545"/>
<path id="Vector_4" d="M6.72266 20.4443H15.6115V21.8666H6.72266V20.4443Z" fill="#454545"/>
<path id="Vector_5" d="M24.9092 15.3156C23.7717 15.3066 22.6579 15.6409 21.7135 16.2749C20.769 16.9089 20.0377 17.813 19.6153 18.8692C19.1928 19.9253 19.0988 21.0844 19.3455 22.1948C19.5922 23.3053 20.1681 24.3155 20.9981 25.0934L19.2736 27.2001L20.0736 30.4089L23.3269 26.4445C24.3568 26.749 25.4527 26.749 26.4825 26.4445L29.7358 30.4089L30.5358 27.2001L28.8114 25.0934C29.6413 24.3155 30.2173 23.3053 30.4639 22.1948C30.7106 21.0844 30.6166 19.9253 30.1942 18.8692C29.7717 17.813 29.0404 16.9089 28.096 16.2749C27.1515 15.6409 26.0378 15.3066 24.9003 15.3156H24.9092ZM24.9092 24.8089C24.1538 24.7984 23.4184 24.5648 22.7954 24.1375C22.1725 23.7102 21.6897 23.1083 21.4079 22.4074C21.1261 21.7065 21.0578 20.9379 21.2116 20.1983C21.3654 19.4586 21.7344 18.781 22.2723 18.2505C22.8101 17.7201 23.4928 17.3605 24.2345 17.2169C24.9762 17.0733 25.7437 17.1523 26.4407 17.4437C27.1376 17.7352 27.7328 18.2262 28.1515 18.855C28.5701 19.4838 28.7935 20.2224 28.7936 20.9778C28.7842 22.0002 28.3703 22.9773 27.6423 23.6953C26.9143 24.4133 25.9316 24.8137 24.9092 24.8089Z" fill="#454545"/>
</g>
<defs>
<clipPath id="clip0_16_1778">
<rect width="32" height="32" fill="white" transform="translate(0.5)"/>
</clipPath>
</defs>
</svg>
