<svg width="17" height="19" viewBox="0 0 17 19" fill="none" xmlns="http://www.w3.org/2000/svg">
<g id="Notification">
<g id="icon">
<path id="Vector" d="M7.89786 18.6736C8.89943 18.6736 9.7189 17.8541 9.7189 16.8525H6.07682C6.07682 17.3355 6.26868 17.7987 6.61019 18.1402C6.9517 18.4817 7.41489 18.6736 7.89786 18.6736ZM13.361 13.2105V8.65786C13.361 5.86257 11.8677 3.52254 9.26364 2.90339V2.28423C9.26364 1.5285 8.65359 0.918457 7.89786 0.918457C7.14213 0.918457 6.53208 1.5285 6.53208 2.28423V2.90339C3.9189 3.52254 2.43475 5.85347 2.43475 8.65786V13.2105L1.26018 14.385C0.686556 14.9586 1.08718 15.942 1.89754 15.942H13.8891C14.6994 15.942 15.1092 14.9586 14.5355 14.385L13.361 13.2105Z" fill="#002856"/>
<circle id="Ellipse 1" cx="13.0647" cy="7.3103" r="2.80102" fill="#AE0000" stroke="#E5E5E5" stroke-width="1.5"/>
</g>
</g>
</svg>
