<svg width="20" height="20" viewBox="0 0 20 20" fill="none" xmlns="http://www.w3.org/2000/svg">
<path d="M11.875 15H14.375V17.5H11.875V15ZM16.25 15H18.75V17.5H16.25V15ZM11.875 10.625H14.375V13.125H11.875V10.625ZM16.25 10.625H18.75V13.125H16.25V10.625Z" fill="#454545"/>
<path d="M10.625 15H2.5V6.25H17.5V9.375H18.75V6.25C18.7497 5.91858 18.6179 5.60083 18.3835 5.36648C18.1492 5.13213 17.8314 5.00033 17.5 5H13.75V2.5C13.7497 2.16858 13.6179 1.85083 13.3835 1.61648C13.1492 1.38213 12.8314 1.25033 12.5 1.25H7.5C7.16858 1.25033 6.85083 1.38213 6.61648 1.61648C6.38213 1.85083 6.25033 2.16858 6.25 2.5V5H2.5C2.16858 5.00033 1.85083 5.13213 1.61648 5.36648C1.38213 5.60083 1.25033 5.91858 1.25 6.25V15C1.25033 15.3314 1.38213 15.6492 1.61648 15.8835C1.85083 16.1179 2.16858 16.2497 2.5 16.25H10.625V15ZM7.5 2.5H12.5V5H7.5V2.5Z" fill="#454545"/>
</svg>
