<svg width="20" height="20" viewBox="0 0 20 20" fill="none" xmlns="http://www.w3.org/2000/svg">
<g id="clarity:license-line">
<g clip-path="url(#clip0_101_1725)">
<path id="Vector" d="M17.778 3.3335H2.22244C1.92775 3.3335 1.64514 3.45056 1.43676 3.65893C1.22839 3.86731 1.11133 4.14992 1.11133 4.44461V15.5557C1.11133 15.8504 1.22839 16.133 1.43676 16.3414C1.64514 16.5498 1.92775 16.6668 2.22244 16.6668H10.5558L10.8724 16.2779L11.3891 15.6446L11.3391 15.5557H2.22244V4.44461H17.778V9.20016C18.2001 9.47338 18.5753 9.81293 18.8891 10.2057V4.44461C18.8891 4.14992 18.772 3.86731 18.5637 3.65893C18.3553 3.45056 18.0727 3.3335 17.778 3.3335Z" fill="#fff"/>
<path id="Vector_2" d="M3.88867 6.6665H13.3331V7.55539H3.88867V6.6665Z" fill="#fff"/>
<path id="Vector_3" d="M3.88867 8.88867H9.99978V9.77756H3.88867V8.88867Z" fill="#fff"/>
<path id="Vector_4" d="M3.88867 12.7778H9.44423V13.6667H3.88867V12.7778Z" fill="#fff"/>
<path id="Vector_5" d="M15.2547 9.57238C14.5438 9.56673 13.8477 9.77568 13.2574 10.1719C12.6671 10.5682 12.2101 11.1333 11.9461 11.7934C11.682 12.4535 11.6233 13.1779 11.7775 13.8719C11.9316 14.5659 12.2916 15.1973 12.8103 15.6835L11.7325 17.0002L12.2325 19.0057L14.2659 16.5279C14.9095 16.7182 15.5944 16.7182 16.2381 16.5279L18.2714 19.0057L18.7714 17.0002L17.6936 15.6835C18.2123 15.1973 18.5723 14.5659 18.7265 13.8719C18.8807 13.1779 18.8219 12.4535 18.5579 11.7934C18.2938 11.1333 17.8368 10.5682 17.2465 10.1719C16.6562 9.77568 15.9601 9.56673 15.2492 9.57238H15.2547ZM15.2547 15.5057C14.7826 15.4991 14.323 15.3531 13.9337 15.0861C13.5443 14.819 13.2426 14.4428 13.0665 14.0047C12.8904 13.5667 12.8477 13.0863 12.9438 12.624C13.0399 12.1618 13.2705 11.7382 13.6067 11.4067C13.9429 11.0752 14.3695 10.8504 14.8331 10.7607C15.2966 10.671 15.7763 10.7203 16.2119 10.9025C16.6475 11.0846 17.0195 11.3915 17.2812 11.7845C17.5429 12.1775 17.6825 12.6391 17.6825 13.1113C17.6767 13.7503 17.4179 14.3609 16.963 14.8097C16.508 15.2584 15.8938 15.5087 15.2547 15.5057Z" fill="#fff"/>
</g>
</g>
<defs>
<clipPath id="clip0_101_1725">
<rect width="20" height="20" rx="4" fill="white"/>
</clipPath>
</defs>
</svg>
