<svg width="20" height="20" viewBox="0 0 20 20" fill="none" xmlns="http://www.w3.org/2000/svg">
<g id="ic:outline-view-in-ar">
<g clip-path="url(#clip0_101_1721)">
<path id="Vector" d="M14.9632 6.23158L14.9638 6.2319C15.4564 6.50999 15.759 7.03475 15.759 7.60825V12.3916C15.759 12.9651 15.4564 13.4898 14.9638 13.7679L14.9632 13.7683L10.7965 16.1683L10.7963 16.1684C10.5495 16.3117 10.2792 16.3833 10.0007 16.3833C9.72215 16.3833 9.45182 16.3117 9.20498 16.1684L9.20475 16.1683L5.03809 13.7683L5.03752 13.7679C4.5449 13.4898 4.24232 12.9651 4.24232 12.3916V7.60825C4.24232 7.03495 4.54478 6.50972 5.03822 6.22316C5.03825 6.22315 5.03828 6.22313 5.03831 6.22311L9.20466 3.83163L9.20498 3.83144C9.45182 3.68812 9.72215 3.61659 10.0007 3.61659C10.2792 3.61659 10.5495 3.68812 10.7963 3.83144L10.7965 3.83158L14.9632 6.23158ZM9.12993 14.3733L9.24232 14.4379V14.3083V10.4749V10.4318L9.20507 10.4101L5.87173 8.46845L5.75898 8.40277V8.53325V12.3916V12.435L5.7966 12.4566L9.12993 14.3733ZM9.96286 9.09804L10.0007 9.12008L10.0384 9.09804L13.3384 7.17304L13.4502 7.10783L13.3381 7.04326L10.0381 5.14326L10.0007 5.12171L9.96323 5.14326L6.66323 7.04326L6.55108 7.10783L6.66286 7.17304L9.96286 9.09804ZM14.2047 12.4566L14.2423 12.435V12.3916V8.53325V8.40277L14.1296 8.46845L10.7962 10.4101L10.759 10.4318V10.4749V14.3083V14.4379L10.8714 14.3733L14.2047 12.4566ZM3.33398 2.42492C2.83423 2.42492 2.42565 2.8335 2.42565 3.33325V4.92492H0.908984V3.33325C0.908984 1.99134 1.99207 0.908252 3.33398 0.908252H4.92565V2.42492H3.33398ZM0.908984 15.0749H2.42565V16.6666C2.42565 17.1663 2.83423 17.5749 3.33398 17.5749H4.92565V19.0916H3.33398C1.99207 19.0916 0.908984 18.0085 0.908984 16.6666V15.0749ZM15.0757 2.42492V0.908252H16.6673C18.0092 0.908252 19.0923 1.99134 19.0923 3.33325V4.92492H17.5757V3.33325C17.5757 2.8335 17.1671 2.42492 16.6673 2.42492H15.0757ZM16.6673 17.5749C17.1671 17.5749 17.5757 17.1663 17.5757 16.6666V15.0749H19.0923V16.6666C19.0923 18.0085 18.0092 19.0916 16.6673 19.0916H15.0757V17.5749H16.6673Z" fill="#fff" stroke="#F2F2F2" stroke-width="0.15"/>
</g>
</g>
<defs>
<clipPath id="clip0_101_1721">
<rect width="20" height="20" rx="4" fill="white"/>
</clipPath>
</defs>
</svg>
