<svg width="20" height="20" viewBox="0 0 20 20" fill="none" xmlns="http://www.w3.org/2000/svg">
<g id="carbon:inventory-management">
<g clip-path="url(#clip0_101_1702)">
<path id="Vector" d="M17.4992 2.49972C17.4993 2.89729 17.4045 3.28914 17.2226 3.64272C17.0407 3.99629 16.7771 4.30139 16.4535 4.53265C16.1299 4.76392 15.7558 4.91467 15.3622 4.97239C14.9686 5.03011 14.5669 4.99313 14.1905 4.86452L12.5855 7.29177C13.2992 7.97136 13.7455 8.92952 13.7492 9.99261L15.2117 10.245C15.4573 9.68858 15.8975 9.2408 16.4497 8.98555C17.002 8.73031 17.6285 8.68512 18.2117 8.85845C18.7949 9.03178 19.2949 9.41174 19.6179 9.92711C19.9408 10.4425 20.0646 11.0579 19.9661 11.6579C19.8675 12.258 19.5534 12.8015 19.0825 13.1867C18.6117 13.5718 18.0164 13.7722 17.4083 13.7501C16.8003 13.728 16.2211 13.485 15.7795 13.0668C15.3378 12.6485 15.0639 12.0836 15.0092 11.4779L13.5467 11.2244C13.2375 12.1207 12.6008 12.8672 11.7642 13.3143L12.3192 15.0095C12.9261 14.9659 13.5281 15.1449 14.0124 15.5131C14.4967 15.8813 14.8299 16.4133 14.9498 17.0095C15.0696 17.6057 14.9677 18.2251 14.6633 18.7516C14.3589 19.2781 13.8727 19.6756 13.296 19.8695C12.7193 20.0635 12.0917 20.0406 11.5307 19.8051C10.9697 19.5696 10.5138 19.1378 10.2486 18.5905C9.98345 18.0432 9.92709 17.418 10.0901 16.8321C10.2531 16.2463 10.6244 15.7399 11.1342 15.408L10.578 13.7091C9.90154 13.8152 9.20893 13.7339 8.57552 13.474C7.9421 13.2141 7.39215 12.7855 6.98548 12.235L4.94173 13.2194C5.07234 13.8133 4.98172 14.4345 4.68686 14.9664C4.392 15.4983 3.91313 15.9045 3.34003 16.1089C2.76692 16.3132 2.13892 16.3016 1.57374 16.0763C1.00856 15.851 0.545007 15.4274 0.269967 14.885C-0.00507189 14.3426 -0.0727129 13.7185 0.0797231 13.1298C0.232159 12.5411 0.594207 12.0281 1.098 11.6871C1.6018 11.346 2.21275 11.2004 2.81634 11.2773C3.41994 11.3542 3.97473 11.6486 4.37673 12.1051L6.41798 11.1219C6.22419 10.5006 6.1957 9.8395 6.33532 9.20381C6.47494 8.56812 6.77786 7.97975 7.21423 7.49665L6.04548 6.03005C5.49275 6.28434 4.8662 6.32844 4.28326 6.15408C3.70033 5.97973 3.20103 5.59888 2.87897 5.08294C2.5569 4.567 2.43418 3.95138 2.5338 3.35148C2.63342 2.75157 2.94854 2.20857 3.4201 1.82426C3.89167 1.43995 4.48729 1.2407 5.09533 1.26387C5.70337 1.28705 6.28208 1.53104 6.72299 1.95013C7.16389 2.36922 7.43672 2.93463 7.49034 3.54037C7.54396 4.14611 7.37468 4.75061 7.01423 5.24054L8.19423 6.72088C8.72923 6.42606 9.34423 6.25741 9.99923 6.25741C10.5517 6.25741 11.0767 6.37609 11.5492 6.59096L13.1467 4.17619C12.8741 3.87554 12.6789 3.51307 12.5778 3.12009C12.4768 2.72712 12.4731 2.31547 12.567 1.92073C12.6609 1.526 12.8495 1.16005 13.1166 0.854516C13.3838 0.548985 13.7213 0.313068 14.1002 0.167156C14.479 0.0212436 14.8877 -0.0302724 15.2909 0.0170601C15.6941 0.0643926 16.0797 0.20915 16.4144 0.438819C16.7491 0.668488 17.0227 0.976158 17.2117 1.33523C17.4008 1.69431 17.4994 2.09399 17.4992 2.49972ZM16.2492 2.49972C16.2492 2.16841 16.1175 1.85066 15.8831 1.61638C15.6487 1.38211 15.3307 1.25049 14.9992 1.25049C14.6677 1.25049 14.3498 1.38211 14.1153 1.61638C13.8809 1.85066 13.7492 2.16841 13.7492 2.49972C13.7492 2.83104 13.8809 3.14879 14.1153 3.38306C14.3498 3.61734 14.6677 3.74895 14.9992 3.74895C15.3307 3.74895 15.6487 3.61734 15.8831 3.38306C16.1175 3.14879 16.2492 2.83104 16.2492 2.49972ZM4.99923 5.00943C5.33075 5.00943 5.64869 4.87781 5.88311 4.64354C6.11753 4.40926 6.24923 4.09151 6.24923 3.7602C6.24923 3.42888 6.11753 3.11113 5.88311 2.87686C5.64869 2.64258 5.33075 2.51097 4.99923 2.51097C4.66771 2.51097 4.34977 2.64258 4.11535 2.87686C3.88092 3.11113 3.74923 3.42888 3.74923 3.7602C3.74923 4.09151 3.88092 4.40926 4.11535 4.64354C4.34977 4.87781 4.66771 5.00943 4.99923 5.00943ZM9.99923 12.5048C10.6623 12.5048 11.2982 12.2416 11.767 11.773C12.2358 11.3045 12.4992 10.669 12.4992 10.0064C12.4992 9.34372 12.2358 8.70823 11.767 8.23967C11.2982 7.77112 10.6623 7.50789 9.99923 7.50789C9.33619 7.50789 8.7003 7.77112 8.23146 8.23967C7.76262 8.70823 7.49923 9.34372 7.49923 10.0064C7.49923 10.669 7.76262 11.3045 8.23146 11.773C8.7003 12.2416 9.33619 12.5048 9.99923 12.5048ZM3.74923 13.754C3.74923 13.4227 3.61753 13.105 3.38311 12.8707C3.14869 12.6364 2.83075 12.5048 2.49923 12.5048C2.16771 12.5048 1.84977 12.6364 1.61534 12.8707C1.38092 13.105 1.24923 13.4227 1.24923 13.754C1.24923 14.0854 1.38092 14.4031 1.61534 14.6374C1.84977 14.8717 2.16771 15.0033 2.49923 15.0033C2.83075 15.0033 3.14869 14.8717 3.38311 14.6374C3.61753 14.4031 3.74923 14.0854 3.74923 13.754ZM13.7492 17.5017C13.7492 17.1704 13.6175 16.8527 13.3831 16.6184C13.1487 16.3841 12.8307 16.2525 12.4992 16.2525C12.1677 16.2525 11.8498 16.3841 11.6153 16.6184C11.3809 16.8527 11.2492 17.1704 11.2492 17.5017C11.2492 17.8331 11.3809 18.1508 11.6153 18.3851C11.8498 18.6194 12.1677 18.751 12.4992 18.751C12.8307 18.751 13.1487 18.6194 13.3831 18.3851C13.6175 18.1508 13.7492 17.8331 13.7492 17.5017ZM17.4992 12.5048C17.8307 12.5048 18.1487 12.3732 18.3831 12.1389C18.6175 11.9046 18.7492 11.5869 18.7492 11.2556C18.7492 10.9243 18.6175 10.6065 18.3831 10.3722C18.1487 10.138 17.8307 10.0064 17.4992 10.0064C17.1677 10.0064 16.8498 10.138 16.6153 10.3722C16.3809 10.6065 16.2492 10.9243 16.2492 11.2556C16.2492 11.5869 16.3809 11.9046 16.6153 12.1389C16.8498 12.3732 17.1677 12.5048 17.4992 12.5048Z" fill="#454545"/>
</g>
</g>
<defs>
<clipPath id="clip0_101_1702">
<rect width="20" height="20" rx="4" fill="white"/>
</clipPath>
</defs>
</svg>
