<svg width="20" height="20" viewBox="0 0 20 20" fill="none" xmlns="http://www.w3.org/2000/svg">
<g id="carbon:iot-connect">
<path id="Vector" d="M18.75 11.875H16.25V9.375H15V15H5V5H10.625V3.75H8.125V1.25H6.875V3.75H5C4.66858 3.75033 4.35083 3.88213 4.11648 4.11648C3.88213 4.35083 3.75033 4.66858 3.75 5V6.875H1.25V8.125H3.75V11.875H1.25V13.125H3.75V15C3.75033 15.3314 3.88213 15.6492 4.11648 15.8835C4.35083 16.1179 4.66858 16.2497 5 16.25H6.875V18.75H8.125V16.25H11.875V18.75H13.125V16.25H15C15.3314 16.2495 15.649 16.1176 15.8833 15.8833C16.1176 15.649 16.2495 15.3314 16.25 15V13.125H18.75V11.875Z" fill="#454545"/>
<path id="Vector_2" d="M16.25 1.25C15.5872 1.25066 14.9517 1.51427 14.483 1.98296C14.0143 2.45166 13.7507 3.08716 13.75 3.75C13.7523 4.19506 13.8748 4.63123 14.1044 5.0125L12.2413 6.875H6.875V13.125H13.125V7.75875L14.9875 5.89625C15.3688 6.12566 15.805 6.24788 16.25 6.25C16.913 6.25 17.5489 5.98661 18.0178 5.51777C18.4866 5.04893 18.75 4.41304 18.75 3.75C18.75 3.08696 18.4866 2.45107 18.0178 1.98223C17.5489 1.51339 16.913 1.25 16.25 1.25ZM11.875 11.875H8.125V8.125H11.875V11.875ZM16.25 5C16.0028 5 15.7611 4.92669 15.5555 4.78934C15.35 4.65199 15.1898 4.45676 15.0951 4.22835C15.0005 3.99995 14.9758 3.74861 15.024 3.50614C15.0722 3.26366 15.1913 3.04093 15.3661 2.86612C15.5409 2.6913 15.7637 2.57225 16.0061 2.52402C16.2486 2.47579 16.4999 2.50054 16.7284 2.59515C16.9568 2.68976 17.152 2.84998 17.2893 3.05554C17.4267 3.2611 17.5 3.50277 17.5 3.75C17.4997 4.08142 17.3679 4.39917 17.1335 4.63352C16.8992 4.86787 16.5814 4.99967 16.25 5Z" fill="#454545"/>
</g>
</svg>
