<svg width="20" height="20" viewBox="0 0 20 20" fill="none" xmlns="http://www.w3.org/2000/svg">
<g id="carbon:ibm-cloud-pak-security">
<path id="Vector" d="M10 14.8305C9.00579 14.8294 8.05264 14.4339 7.34963 13.7309C6.64662 13.0279 6.25116 12.0748 6.25 11.0805V7.04492L10 5.16992L13.75 7.04492V11.0799C13.7488 12.0741 13.3534 13.0273 12.6504 13.7303C11.9474 14.4333 10.9942 14.8294 10 14.8305ZM7.5 7.8168V11.0805C7.5 11.7436 7.76339 12.3795 8.23223 12.8483C8.70107 13.3172 9.33696 13.5805 10 13.5805C10.663 13.5805 11.2989 13.3172 11.7678 12.8483C12.2366 12.3795 12.5 11.7436 12.5 11.0805V7.8168L10 6.5668L7.5 7.8168Z" fill="#454545"/>
<path id="Vector_2" d="M10 19.3749C9.88932 19.375 9.78061 19.3457 9.685 19.2899L2.185 14.9149C2.09064 14.8599 2.01236 14.781 1.95797 14.6863C1.90357 14.5915 1.87497 14.4842 1.875 14.3749V5.62494C1.87497 5.51569 1.90357 5.40834 1.95797 5.31359C2.01236 5.21884 2.09064 5.14 2.185 5.08494L9.685 0.709941C9.7806 0.654153 9.88931 0.624756 10 0.624756C10.1107 0.624756 10.2194 0.654153 10.315 0.709941L17.815 5.08494L17.185 6.16494L10 1.97369L3.125 5.98369V14.0162L10 18.0268L16.875 14.0162V9.37494H18.125V14.3749C18.125 14.4842 18.0964 14.5915 18.042 14.6863C17.9876 14.781 17.9094 14.8599 17.815 14.9149L10.315 19.2899C10.2194 19.3457 10.1107 19.375 10 19.3749Z" fill="#454545"/>
</g>
</svg>
