<svg width="20" height="20" viewBox="0 0 20 20" fill="none" xmlns="http://www.w3.org/2000/svg">
<path d="M3.75 15C3.99723 15 4.2389 15.0733 4.44446 15.2107C4.65002 15.348 4.81024 15.5432 4.90485 15.7716C4.99946 16.0001 5.02421 16.2514 4.97598 16.4939C4.92775 16.7363 4.8087 16.9591 4.63388 17.1339C4.45907 17.3087 4.23634 17.4277 3.99386 17.476C3.75139 17.5242 3.50005 17.4995 3.27165 17.4048C3.04324 17.3102 2.84802 17.15 2.71066 16.9445C2.57331 16.7389 2.5 16.4972 2.5 16.25C2.5 15.9185 2.6317 15.6005 2.86612 15.3661C3.10054 15.1317 3.41848 15 3.75 15ZM3.75 13.75C3.25555 13.75 2.7722 13.8966 2.36108 14.1713C1.94995 14.446 1.62952 14.8365 1.4403 15.2933C1.25108 15.7501 1.20157 16.2528 1.29804 16.7377C1.3945 17.2227 1.6326 17.6681 1.98223 18.0178C2.33187 18.3674 2.77732 18.6055 3.26228 18.702C3.74723 18.7984 4.24989 18.7489 4.70671 18.5597C5.16352 18.3705 5.55397 18.05 5.82867 17.6389C6.10338 17.2278 6.25 16.7445 6.25 16.25C6.25 15.587 5.98661 14.9511 5.51777 14.4822C5.04893 14.0134 4.41304 13.75 3.75 13.75ZM10 2.5C10.2472 2.5 10.4889 2.57331 10.6945 2.71066C10.9 2.84801 11.0602 3.04324 11.1549 3.27165C11.2495 3.50005 11.2742 3.75139 11.226 3.99386C11.1778 4.23634 11.0587 4.45907 10.8839 4.63388C10.7091 4.8087 10.4863 4.92775 10.2439 4.97598C10.0014 5.02421 9.75005 4.99946 9.52165 4.90485C9.29324 4.81024 9.09802 4.65002 8.96066 4.44446C8.82331 4.2389 8.75 3.99723 8.75 3.75C8.75 3.41848 8.8817 3.10054 9.11612 2.86612C9.35054 2.6317 9.66848 2.5 10 2.5ZM10 1.25C9.50555 1.25 9.0222 1.39662 8.61108 1.67133C8.19995 1.94603 7.87952 2.33648 7.6903 2.79329C7.50108 3.25011 7.45157 3.75277 7.54804 4.23773C7.6445 4.72268 7.8826 5.16814 8.23223 5.51777C8.58186 5.8674 9.02732 6.1055 9.51227 6.20196C9.99723 6.29843 10.4999 6.24892 10.9567 6.0597C11.4135 5.87048 11.804 5.55005 12.0787 5.13892C12.3534 4.7278 12.5 4.24445 12.5 3.75C12.5 3.08696 12.2366 2.45107 11.7678 1.98223C11.2989 1.51339 10.663 1.25 10 1.25ZM16.25 2.5C16.4972 2.5 16.7389 2.57331 16.9445 2.71066C17.15 2.84801 17.3102 3.04324 17.4049 3.27165C17.4995 3.50005 17.5242 3.75139 17.476 3.99386C17.4277 4.23634 17.3087 4.45907 17.1339 4.63388C16.9591 4.8087 16.7363 4.92775 16.4939 4.97598C16.2514 5.02421 16.0001 4.99946 15.7716 4.90485C15.5432 4.81024 15.348 4.65002 15.2107 4.44446C15.0733 4.2389 15 3.99723 15 3.75C15 3.41848 15.1317 3.10054 15.3661 2.86612C15.6005 2.6317 15.9185 2.5 16.25 2.5ZM16.25 1.25C15.7555 1.25 15.2722 1.39662 14.8611 1.67133C14.45 1.94603 14.1295 2.33648 13.9403 2.79329C13.7511 3.25011 13.7016 3.75277 13.798 4.23773C13.8945 4.72268 14.1326 5.16814 14.4822 5.51777C14.8319 5.8674 15.2773 6.1055 15.7623 6.20196C16.2472 6.29843 16.7499 6.24892 17.2067 6.0597C17.6635 5.87048 18.054 5.55005 18.3287 5.13892C18.6034 4.7278 18.75 4.24445 18.75 3.75C18.75 3.08696 18.4866 2.45107 18.0178 1.98223C17.5489 1.51339 16.913 1.25 16.25 1.25ZM11.25 15V17.5H8.75V15H11.25ZM12.5 13.75H7.5V18.75H12.5V13.75Z" fill="#454545"/>
<path d="M16.875 13.8375V10.625C16.875 10.2935 16.7433 9.97554 16.5089 9.74112C16.2745 9.5067 15.9565 9.375 15.625 9.375H4.375V6.25H6.25V1.25H1.25V6.25H3.125V9.375C3.125 9.70652 3.2567 10.0245 3.49112 10.2589C3.72554 10.4933 4.04348 10.625 4.375 10.625H15.625V13.8375C15.0358 13.9896 14.5224 14.3514 14.1809 14.855C13.8394 15.3586 13.6933 15.9695 13.7699 16.5731C13.8466 17.1768 14.1408 17.7317 14.5974 18.134C15.0539 18.5362 15.6415 18.7581 16.25 18.7581C16.8585 18.7581 17.4461 18.5362 17.9026 18.134C18.3592 17.7317 18.6534 17.1768 18.7301 16.5731C18.8067 15.9695 18.6606 15.3586 18.3191 14.855C17.9776 14.3514 17.4642 13.9896 16.875 13.8375ZM2.5 2.5H5V5H2.5V2.5ZM16.25 17.5C16.0028 17.5 15.7611 17.4267 15.5555 17.2893C15.35 17.152 15.1898 16.9568 15.0951 16.7284C15.0005 16.4999 14.9758 16.2486 15.024 16.0061C15.0722 15.7637 15.1913 15.5409 15.3661 15.3661C15.5409 15.1913 15.7637 15.0722 16.0061 15.024C16.2486 14.9758 16.4999 15.0005 16.7284 15.0951C16.9568 15.1898 17.152 15.35 17.2893 15.5555C17.4267 15.7611 17.5 16.0028 17.5 16.25C17.5 16.5815 17.3683 16.8995 17.1339 17.1339C16.8995 17.3683 16.5815 17.5 16.25 17.5Z" fill="#454545"/>
</svg>
