<svg width="7" height="15" viewBox="0 0 7 15" fill="none" xmlns="http://www.w3.org/2000/svg">
<path d="M4.75786 3.76182C5.79666 3.76182 6.63877 2.91971 6.63877 1.88091C6.63877 0.842112 5.79666 0 4.75786 0C3.71907 0 2.87695 0.842112 2.87695 1.88091C2.87695 2.91971 3.71907 3.76182 4.75786 3.76182Z" fill="#002856"/>
<path d="M6.68057 11.3937C6.62861 11.3588 6.57019 11.3345 6.50874 11.3225C6.44729 11.3104 6.38405 11.3107 6.32273 11.3234C6.26141 11.3361 6.20324 11.361 6.15164 11.3964C6.10004 11.4319 6.05605 11.4774 6.02225 11.5301C5.56768 12.2033 5.01081 12.8014 4.37176 13.3028C4.21658 13.4204 3.6382 13.8671 3.39368 13.7731C3.2244 13.7213 3.32315 13.3875 3.35607 13.2464L3.60529 12.5082C3.70874 12.2072 5.50971 6.86543 5.7072 6.25413C5.99874 5.3607 5.87178 4.48137 4.54104 4.69298C4.17896 4.73059 0.506487 5.20552 0.440655 5.21023C0.378904 5.21424 0.318548 5.23038 0.263033 5.25772C0.207519 5.28506 0.157933 5.32306 0.117106 5.36957C0.0762797 5.41607 0.0450123 5.47016 0.0250895 5.52874C0.00516663 5.58733 -0.00302147 5.64927 0.000992349 5.71102C0.00500617 5.77277 0.0211436 5.83313 0.048483 5.88864C0.0758224 5.94415 0.113828 5.99374 0.160331 6.03457C0.206834 6.07539 0.260923 6.10666 0.319509 6.12658C0.378096 6.14651 0.440033 6.1547 0.501784 6.15068C0.501784 6.15068 1.91247 5.96729 2.06764 5.95319C2.14712 5.94543 2.22716 5.96083 2.29808 5.99754C2.369 6.03426 2.42778 6.09071 2.46734 6.16009C2.55254 6.42347 2.54087 6.70863 2.43442 6.96417C2.31216 7.4344 0.379526 12.8796 0.318396 13.1947C0.252831 13.4583 0.271034 13.7359 0.370476 13.9887C0.469918 14.2415 0.645657 14.457 0.873264 14.6054C1.30047 14.8901 1.80913 15.0272 2.32156 14.9957C2.8198 14.9896 3.31255 14.8907 3.77457 14.7041C4.94543 14.2339 6.16803 12.9831 6.81224 12.0003C6.86771 11.9005 6.88494 11.7838 6.86071 11.6722C6.83648 11.5606 6.77245 11.4616 6.68057 11.3937Z" fill="#002856"/>
</svg>
