<svg width="14" height="15" viewBox="0 0 14 15" fill="none" xmlns="http://www.w3.org/2000/svg">
<path d="M6.08575 15C6.93191 15 7.62421 14.3077 7.62421 13.4615H4.54729C4.54729 13.8696 4.70938 14.2609 4.9979 14.5494C5.28641 14.8379 5.67773 15 6.08575 15ZM10.7011 10.3846V6.53846C10.7011 4.17692 9.4396 2.2 7.2396 1.67692V1.15385C7.2396 0.515385 6.72421 0 6.08575 0C5.44729 0 4.93191 0.515385 4.93191 1.15385V1.67692C2.72421 2.2 1.47037 4.16923 1.47037 6.53846V10.3846L0.478059 11.3769C-0.006556 11.8615 0.331905 12.6923 1.01652 12.6923H11.1473C11.8319 12.6923 12.1781 11.8615 11.6934 11.3769L10.7011 10.3846Z" fill="#002856"/>
<circle cx="10.4492" cy="5.3999" r="2.25" fill="#AE0000" stroke="#F2F2F2" stroke-width="1.5"/>
</svg>
