<svg width="40" height="40" viewBox="0 0 40 40" fill="none" xmlns="http://www.w3.org/2000/svg">
<path d="M20 2C10.059 2 2 10.059 2 20C2 29.941 10.059 38 20 38C29.941 38 38 29.941 38 20" stroke="#002856" stroke-width="4" stroke-linecap="round" stroke-linejoin="round"/>
<path d="M20 11C18.22 11 16.4799 11.5278 14.9999 12.5168C13.5198 13.5057 12.3663 14.9113 11.6851 16.5558C11.0039 18.2004 10.8257 20.01 11.1729 21.7558C11.5202 23.5016 12.3774 25.1053 13.636 26.364C14.8947 27.6226 16.4984 28.4798 18.2442 28.8271C19.99 29.1743 21.7996 28.9961 23.4442 28.3149C25.0887 27.6337 26.4943 26.4802 27.4832 25.0001C28.4722 23.5201 29 21.78 29 20M20 20L26.3 13.694" stroke="#002856" stroke-width="4" stroke-linecap="round" stroke-linejoin="round"/>
<path d="M26.3 7.426V13.7H32.625L38 8.3H31.703V2L26.3 7.426Z" stroke="#002856" stroke-width="4" stroke-linejoin="round"/>
</svg>
