<svg width="25" height="24" viewBox="0 0 25 24" fill="none" xmlns="http://www.w3.org/2000/svg">
<path d="M2.07129 12C2.07129 6.20101 6.7723 1.5 12.5713 1.5C18.3703 1.5 23.0713 6.20101 23.0713 12C23.0713 17.799 18.3703 22.5 12.5713 22.5C6.7723 22.5 2.07129 17.799 2.07129 12ZM12.5713 0C5.94387 0 0.571289 5.37258 0.571289 12C0.571289 18.6274 5.94387 24 12.5713 24C19.1987 24 24.5713 18.6274 24.5713 12C24.5713 5.37258 19.1987 0 12.5713 0ZM15.8213 7.25C15.8213 9.04493 14.3662 10.5 12.5713 10.5C10.7764 10.5 9.32129 9.04493 9.32129 7.25C9.32129 5.45507 10.7764 4 12.5713 4C14.3662 4 15.8213 5.45507 15.8213 7.25ZM12.5713 19.5C15.885 19.5 18.5713 17.3571 18.5713 14.1429C18.5713 12.9594 17.6119 12 16.4284 12H8.71415C7.53068 12 6.57129 12.9594 6.57129 14.1429C6.57129 17.3571 9.25758 19.5 12.5713 19.5Z" fill="#002856"/>
</svg>
