<svg width="20" height="20" viewBox="0 0 20 20" fill="none" xmlns="http://www.w3.org/2000/svg">
<path d="M8.33341 2.08331C9.49839 2.08327 10.6402 2.40882 11.63 3.02325C12.6198 3.63767 13.4181 4.5165 13.9349 5.56057C14.4518 6.60463 14.6665 7.77236 14.5549 8.93199C14.4433 10.0916 14.0099 11.197 13.3034 12.1233L17.2559 16.0775C17.4054 16.2274 17.4921 16.4287 17.4986 16.6403C17.5051 16.8519 17.4307 17.0581 17.2907 17.2169C17.1507 17.3757 16.9555 17.4752 16.7447 17.4953C16.5339 17.5154 16.3234 17.4545 16.1559 17.325L16.0776 17.2558L12.1234 13.3033C11.3342 13.9051 10.4131 14.3102 9.43628 14.4853C8.45943 14.6604 7.45494 14.6003 6.50591 14.3101C5.55689 14.0198 4.69062 13.5078 3.97879 12.8163C3.26696 12.1248 2.73003 11.2737 2.41243 10.3335C2.09484 9.39325 2.0057 8.39091 2.15241 7.40941C2.29911 6.4279 2.67743 5.49543 3.25607 4.68917C3.83471 3.88291 4.59703 3.22603 5.47995 2.77288C6.36287 2.31974 7.341 2.08337 8.33341 2.08331ZM8.33341 3.74998C7.11784 3.74998 5.95205 4.23287 5.09251 5.09241C4.23296 5.95195 3.75008 7.11774 3.75008 8.33331C3.75008 9.54889 4.23296 10.7147 5.09251 11.5742C5.95205 12.4338 7.11784 12.9166 8.33341 12.9166C9.54899 12.9166 10.7148 12.4338 11.5743 11.5742C12.4339 10.7147 12.9167 9.54889 12.9167 8.33331C12.9167 7.11774 12.4339 5.95195 11.5743 5.09241C10.7148 4.23287 9.54899 3.74998 8.33341 3.74998Z" fill="white"/>
</svg>
