<svg width="50" height="50" viewBox="0 0 50 50" fill="none" xmlns="http://www.w3.org/2000/svg">
<rect x="0.5" y="0.5" width="50" height="50" rx="4.5" fill="#D1D1D1" stroke="#ECECEC" stroke-linejoin="round"/>
<path d="M33.3337 28.3333H28.3337V26.6666H33.3337V28.3333ZM36.6671 35H31.6671V33.3333H36.6671V35ZM35.0004 31.6666H30.0004V30H35.0004V31.6666Z" fill="#002856"/>
<path d="M25.8362 28.3333C25.8303 27.6302 25.6427 26.9405 25.2917 26.3312C24.9407 25.7218 24.4382 25.2136 23.8328 24.8558L30.0003 14.1666L28.5587 13.3333L22.2445 24.2716C21.4696 24.0985 20.6636 24.1225 19.9003 24.3413C19.1371 24.5601 18.4408 24.9668 17.8753 25.5241C14.7553 28.5333 14.997 35.5683 15.0087 35.8666C15.0173 36.0818 15.1089 36.2853 15.2642 36.4345C15.4196 36.5836 15.6266 36.6668 15.842 36.6666H28.3345C28.5094 36.6666 28.6799 36.6116 28.8217 36.5093C28.9636 36.4071 29.0697 36.2628 29.1251 36.0968C29.1804 35.9309 29.1821 35.7518 29.1299 35.5848C29.0778 35.4179 28.9744 35.2716 28.8345 35.1666C25.8845 32.9533 25.8362 28.3783 25.8362 28.3333ZM21.6087 25.8308C22.2756 25.8381 22.9141 26.1023 23.3912 26.5685C23.8684 27.0346 24.1474 27.6667 24.1703 28.3333C24.1703 28.365 24.172 28.5066 24.1845 28.7241L19.2678 26.5375C19.5917 26.2704 19.9654 26.0704 20.3673 25.9491C20.7691 25.8278 21.1911 25.7876 21.6087 25.8308ZM24.542 35C23.8759 34.3217 23.4513 33.4433 23.3337 32.5H21.667C21.7267 33.3869 22.0037 34.2455 22.4737 35H20.6212C20.2784 33.9185 20.0699 32.799 20.0003 31.6666H18.3337C18.3874 32.7956 18.5734 33.9144 18.8878 35H16.667C16.6928 33.47 16.9087 30.09 18.1695 27.8725L24.447 30.6641C24.7486 32.2302 25.3916 33.7106 26.3303 35H24.542Z" fill="#002856"/>
</svg>
