<svg width="50" height="50" viewBox="0 0 50 50" fill="none" xmlns="http://www.w3.org/2000/svg">
<rect x="0.5" y="0.5" width="50" height="50" rx="4.5" fill="#D1D1D1" stroke="#ECECEC" stroke-linejoin="round"/>
<path d="M14 20.7143V15H19.7143V16.4286H15.4286V20.7143H14ZM15.4286 29.2857V33.5714H19.7143V35H14V29.2857H15.4286ZM35.4286 33.5714V29.2857H36.8571V35H31.1429V33.5714H35.4286ZM31.1429 15H36.8571V20.7143H35.4286V16.4286H31.1429V15ZM18.2857 29.2857V20.7143H19.7143V29.2857H18.2857ZM22.5714 29.2857V20.7143H24V29.2857H22.5714ZM26.8571 29.2857V20.7143H28.2857V29.2857H26.8571ZM32.5714 20.7143V29.2857H31.1429V20.7143H32.5714Z" fill="#002856"/>
</svg>
