<svg width="14" height="16" viewBox="0 0 14 16" fill="none" xmlns="http://www.w3.org/2000/svg">
<g id="Group 44">
<path id="Vector" d="M6.91212 1.92043C6.22771 1.92043 5.66311 2.15437 5.17887 2.63861C4.69451 3.12297 4.46047 3.68768 4.46047 4.37186C4.46047 5.05626 4.69451 5.62096 5.17885 6.1052C5.66333 6.58947 6.22794 6.82351 6.91212 6.82351C7.59641 6.82351 8.16112 6.58957 8.64547 6.10522C8.64547 6.10522 8.64547 6.10522 8.64547 6.10522M6.91212 1.92043L8.71618 2.5679C9.21916 3.07099 9.46377 3.66113 9.46377 4.37186C9.46377 5.08281 9.21916 5.67284 8.71618 6.17593L8.64547 6.10522M6.91212 1.92043C7.59641 1.92043 8.16112 2.15437 8.64547 2.63861M6.91212 1.92043L8.64547 2.63861M8.64547 6.10522C9.12972 5.62086 9.36377 5.05625 9.36377 4.37186C9.36377 3.68768 9.12972 3.12296 8.64547 2.63861M8.64547 6.10522L8.64547 2.63861M9.3671 6.82674L9.36711 6.82673C10.0412 6.15248 10.3842 5.325 10.3842 4.37186C10.3842 3.41904 10.0414 2.59145 9.367 1.91699L9.36698 1.91697C8.69263 1.24284 7.86504 0.9 6.91212 0.9C5.95898 0.9 5.13149 1.24284 4.45724 1.91709C3.78299 2.59134 3.44004 3.41893 3.44004 4.37186C3.44004 5.325 3.78299 6.15259 4.45724 6.82684L4.45726 6.82686C5.13171 7.50098 5.95929 7.84394 6.91212 7.84394C7.86514 7.84394 8.69274 7.5011 9.3671 6.82674Z" fill="#002856" stroke="#002856" stroke-width="0.2"/>
<path id="Vector_2" d="M12.7972 10.8632L12.7972 10.8632C12.8541 11.1804 12.8928 11.4816 12.912 11.7586M12.7972 10.8632L12.912 11.7586M12.7972 10.8632C12.7397 10.5428 12.6656 10.2392 12.5765 9.96095L12.5765 9.96094M12.7972 10.8632L12.5765 9.96094M12.912 11.7586C12.9309 12.0276 12.9404 12.3082 12.9406 12.5924V12.5924C12.9406 13.3462 12.7001 13.9659 12.2189 14.4238L12.15 14.3513M12.912 11.7586L12.15 14.3513M12.15 14.3513L12.2189 14.4238C11.7447 14.8749 11.12 15.1002 10.3709 15.1002H3.62977C2.88052 15.1002 2.25577 14.8749 1.78166 14.4238M12.15 14.3513L1.78166 14.4238M12.5765 9.96094C12.4837 9.67145 12.358 9.38593 12.2025 9.11255C12.0404 8.82732 11.8492 8.57756 11.6334 8.37114C11.4056 8.15319 11.1279 7.97917 10.8091 7.85281L10.809 7.85278C10.4892 7.72625 10.1363 7.6628 9.76114 7.6628C9.58619 7.6628 9.4261 7.73721 9.15852 7.91142L9.15846 7.91146C8.99453 8.01837 8.80268 8.14208 8.58844 8.27897M12.5765 9.96094L8.58844 8.27897M8.58844 8.27897C8.41476 8.38963 8.17498 8.49597 7.87272 8.5936L7.87267 8.59362C7.58273 8.68744 7.28912 8.73477 6.99993 8.73477C6.71096 8.73477 6.41734 8.68744 6.12716 8.59361L6.12713 8.5936C5.82519 8.49608 5.58537 8.38975 5.41206 8.27915L8.58844 8.27897ZM4.84135 7.91133C4.57397 7.73711 4.41388 7.6627 4.23892 7.6627C3.8636 7.6627 3.51087 7.72625 3.19113 7.8529L4.84135 7.91133ZM4.84135 7.91133C5.00777 8.01976 5.19977 8.14349 5.41202 8.27912L4.84135 7.91133ZM1.78166 14.4238L1.78163 14.4237C1.30057 13.9656 1.06016 13.3461 1.06016 12.5926C1.06016 12.3092 1.06963 12.0287 1.08838 11.7589L1.78166 14.4238ZM11.5154 13.6845L11.5154 13.6845C11.7841 13.4288 11.92 13.0769 11.9201 12.5926C11.92 12.3317 11.9113 12.0751 11.8941 11.8299L11.8941 11.8296L11.8936 11.8229H11.8936C11.8769 11.5853 11.8429 11.3231 11.7929 11.0433C11.7431 10.7661 11.6797 10.5066 11.6047 10.2721C11.5336 10.0501 11.4362 9.82942 11.3153 9.61673L11.3153 9.61669C11.2009 9.41537 11.0703 9.24471 10.9279 9.10848L10.9971 9.03622L10.9279 9.10848C10.7979 8.98407 10.6321 8.88023 10.4335 8.80161C10.2596 8.73282 10.0632 8.6932 9.84806 8.68482C9.81985 8.70076 9.77713 8.72631 9.7158 8.76622C9.54681 8.87645 9.35758 8.99839 9.13748 9.13907L9.13739 9.13913C8.88557 9.29969 8.56518 9.44228 8.1866 9.56461M11.5154 13.6845L5.81334 9.5645L5.84411 9.46935L5.81338 9.56451C6.20412 9.69085 6.60327 9.7552 7.00003 9.7552C7.3968 9.7552 7.79607 9.69085 8.1866 9.56461M11.5154 13.6845C11.2394 13.9471 10.8696 14.0798 10.3708 14.0798H3.62977C3.13088 14.0798 2.76107 13.9471 2.48522 13.6846C2.21652 13.4288 2.08058 13.0767 2.08058 12.5926C2.08058 12.3324 2.08917 12.0757 2.1063 11.8295L2.1063 11.8294M11.5154 13.6845L2.1063 11.8294M8.1866 9.56461L8.15585 9.46946L8.18661 9.56461C8.18661 9.56461 8.1866 9.56461 8.1866 9.56461ZM2.1063 11.8294C2.12289 11.5897 2.15687 11.3253 2.2075 11.0435L2.2075 11.0435M2.1063 11.8294L2.2075 11.0435M2.68492 9.61657C2.56406 9.82938 2.46681 10.0499 2.39562 10.2722L2.68492 9.61657ZM2.68492 9.61657C2.79929 9.41547 2.92985 9.24479 3.07226 9.10846L3.07226 9.10845C3.20226 8.98398 3.36807 8.88025 3.5668 8.80161L3.56681 8.80161C3.7406 8.73282 3.93692 8.6932 4.15203 8.68482L2.68492 9.61657ZM2.2075 11.0435C2.25736 10.766 2.32066 10.5064 2.39562 10.2722L2.2075 11.0435ZM1.20315 10.8632C1.14621 11.18 1.10757 11.4813 1.08838 11.7589L1.20315 10.8632Z" fill="#002856" stroke="#002856" stroke-width="0.2"/>
</g>
</svg>
