<svg width="35" height="35" viewBox="0 0 35 35" fill="none" xmlns="http://www.w3.org/2000/svg">
<g id="Frame 3">
<rect width="35" height="35" rx="17.5" fill="#454545"/>
<path id="Vector" d="M24.4 10H11.6C10.72 10 10.008 10.72 10.008 11.6L10 26L13.2 22.8H24.4C25.28 22.8 26 22.08 26 21.2V11.6C26 10.72 25.28 10 24.4 10ZM14 15.6H22C22.44 15.6 22.8 15.96 22.8 16.4C22.8 16.84 22.44 17.2 22 17.2H14C13.56 17.2 13.2 16.84 13.2 16.4C13.2 15.96 13.56 15.6 14 15.6ZM18.8 19.6H14C13.56 19.6 13.2 19.24 13.2 18.8C13.2 18.36 13.56 18 14 18H18.8C19.24 18 19.6 18.36 19.6 18.8C19.6 19.24 19.24 19.6 18.8 19.6ZM22 14.8H14C13.56 14.8 13.2 14.44 13.2 14C13.2 13.56 13.56 13.2 14 13.2H22C22.44 13.2 22.8 13.56 22.8 14C22.8 14.44 22.44 14.8 22 14.8Z" fill="#F2F2F2"/>
</g>
</svg>
