<svg width="68" height="32" viewBox="0 0 68 32" fill="none" xmlns="http://www.w3.org/2000/svg">
<rect x="0.5" y="0.5" width="67" height="31" rx="14.5" fill="white" stroke="#D9D9D9"/>
<g filter="url(#filter0_i_89_286)">
<path d="M32 23C32 23.2833 31.808 23.521 31.424 23.713C31.04 23.905 30.5653 24.0007 30 24C29.4333 24 28.958 23.904 28.574 23.712C28.19 23.52 27.9987 23.2827 28 23V9.00001C28 8.71668 28.192 8.47902 28.576 8.28702C28.96 8.09502 29.4347 7.99935 30 8.00002C30.5667 8.00002 31.042 8.09602 31.426 8.28802C31.81 8.48002 32.0013 8.71735 32 9.00001V23ZM40 23C40 23.2833 39.808 23.521 39.424 23.713C39.04 23.905 38.5653 24.0007 38 24C37.4333 24 36.958 23.904 36.574 23.712C36.19 23.52 35.9987 23.2827 36 23V9.00001C36 8.71668 36.192 8.47902 36.576 8.28702C36.96 8.09502 37.4347 7.99935 38 8.00002C38.5667 8.00002 39.042 8.09602 39.426 8.28802C39.81 8.48002 40.0013 8.71735 40 9.00001V23Z" fill="white"/>
</g>
<defs>
<filter id="filter0_i_89_286" x="28" y="8.00002" width="12" height="16" filterUnits="userSpaceOnUse" color-interpolation-filters="sRGB">
<feFlood flood-opacity="0" result="BackgroundImageFix"/>
<feBlend mode="normal" in="SourceGraphic" in2="BackgroundImageFix" result="shape"/>
<feColorMatrix in="SourceAlpha" type="matrix" values="0 0 0 0 0 0 0 0 0 0 0 0 0 0 0 0 0 0 127 0" result="hardAlpha"/>
<feOffset/>
<feGaussianBlur stdDeviation="1.5"/>
<feComposite in2="hardAlpha" operator="arithmetic" k2="-1" k3="1"/>
<feColorMatrix type="matrix" values="0 0 0 0 0 0 0 0 0 0 0 0 0 0 0 0 0 0 0.4 0"/>
<feBlend mode="normal" in2="shape" result="effect1_innerShadow_89_286"/>
</filter>
</defs>
</svg>
